<svg xmlns="http://www.w3.org/2000/svg" xmlns:xlink="http://www.w3.org/1999/xlink" viewBox="0 0 24 30" version="1.1" x="0px" y="0px"><title>Approved Copy</title><desc>Created with Sketch.</desc><g stroke="none" stroke-width="1" fill="none" fill-rule="evenodd"><g transform="translate(3.000000, 4.500000)" fill="#000000" fill-rule="nonzero"><path d="M0.5,1.25 C0.0857864376,1.25 -0.25,0.914213562 -0.25,0.5 C-0.25,0.0857864376 0.0857864376,-0.25 0.5,-0.25 L17.5,-0.25 C17.9142136,-0.25 18.25,0.0857864376 18.25,0.5 C18.25,0.914213562 17.9142136,1.25 17.5,1.25 L0.5,1.25 Z"/><path d="M0.5,8.25 C0.0857864376,8.25 -0.25,7.91421356 -0.25,7.5 C-0.25,7.08578644 0.0857864376,6.75 0.5,6.75 L17.5,6.75 C17.9142136,6.75 18.25,7.08578644 18.25,7.5 C18.25,7.91421356 17.9142136,8.25 17.5,8.25 L0.5,8.25 Z"/><path d="M0.5,15.25 C0.0857864376,15.25 -0.25,14.9142136 -0.25,14.5 C-0.25,14.0857864 0.0857864376,13.75 0.5,13.75 L17.5,13.75 C17.9142136,13.75 18.25,14.0857864 18.25,14.5 C18.25,14.9142136 17.9142136,15.25 17.5,15.25 L0.5,15.25 Z"/></g></g><text x="0" y="39" fill="#000000" font-size="5px" font-weight="bold" font-family="'Helvetica Neue', Helvetica, Arial-Unicode, Arial, Sans-serif">Created by Daniel Leonard</text><text x="0" y="44" fill="#000000" font-size="5px" font-weight="bold" font-family="'Helvetica Neue', Helvetica, Arial-Unicode, Arial, Sans-serif">from the Noun Project</text></svg>